<?xml version='1.0' encoding='UTF-8' standalone='no'?>
<svg height="458pt" viewBox="0 0 787 458" width="787pt" xmlns="http://www.w3.org/2000/svg" xmlns:xlink="http://www.w3.org/1999/xlink">
 <title>Figure 1</title>
 <desc>
Creator: GL2PS 1.4.2, (C) 1999-2020 C. Geuzaine
For: Octave
CreationDate: Thu Jan 30 15:21:45 2025
</desc>
 <defs/>
 <polygon fill="#ffffff" points="0,0 787,0 787,458 0,458"/>
 <g>
  <polygon fill="#ffffff" points="0,458 787,458 787,0 0,0" shape-rendering="crispEdges"/>
  <clipPath id="cp00787458">
   <polygon points="0,458 787,458 787,0 0,0"/>
  </clipPath>
  <g clip-path="url(#cp00787458)">
   <polygon fill="#ffffff" points="102.33,408.331 712.376,408.331 712.376,34.4099 102.33,34.4099" shape-rendering="crispEdges"/>
   <polyline fill="none" points="102.33,408.331 102.33,402.232" stroke="#262626" stroke-linecap="butt" stroke-linejoin="miter" stroke-width="0.5"/>
   <polyline fill="none" points="102.33,34.4099 102.33,40.5091" stroke="#262626" stroke-linecap="butt" stroke-linejoin="miter" stroke-width="0.5"/>
   <polyline fill="none" points="204.004,408.331 204.004,402.232" stroke="#262626" stroke-linecap="butt" stroke-linejoin="miter" stroke-width="0.5"/>
   <polyline fill="none" points="204.004,34.4099 204.004,40.5091" stroke="#262626" stroke-linecap="butt" stroke-linejoin="miter" stroke-width="0.5"/>
   <polyline fill="none" points="305.679,408.331 305.679,402.232" stroke="#262626" stroke-linecap="butt" stroke-linejoin="miter" stroke-width="0.5"/>
   <polyline fill="none" points="305.679,34.4099 305.679,40.5091" stroke="#262626" stroke-linecap="butt" stroke-linejoin="miter" stroke-width="0.5"/>
   <polyline fill="none" points="407.353,408.331 407.353,402.232" stroke="#262626" stroke-linecap="butt" stroke-linejoin="miter" stroke-width="0.5"/>
   <polyline fill="none" points="407.353,34.4099 407.353,40.5091" stroke="#262626" stroke-linecap="butt" stroke-linejoin="miter" stroke-width="0.5"/>
   <polyline fill="none" points="509.027,408.331 509.027,402.232" stroke="#262626" stroke-linecap="butt" stroke-linejoin="miter" stroke-width="0.5"/>
   <polyline fill="none" points="509.027,34.4099 509.027,40.5091" stroke="#262626" stroke-linecap="butt" stroke-linejoin="miter" stroke-width="0.5"/>
   <polyline fill="none" points="610.701,408.331 610.701,402.232" stroke="#262626" stroke-linecap="butt" stroke-linejoin="miter" stroke-width="0.5"/>
   <polyline fill="none" points="610.701,34.4099 610.701,40.5091" stroke="#262626" stroke-linecap="butt" stroke-linejoin="miter" stroke-width="0.5"/>
   <polyline fill="none" points="712.376,408.331 712.376,402.232" stroke="#262626" stroke-linecap="butt" stroke-linejoin="miter" stroke-width="0.5"/>
   <polyline fill="none" points="712.376,34.4099 712.376,40.5091" stroke="#262626" stroke-linecap="butt" stroke-linejoin="miter" stroke-width="0.5"/>
   <g font-family="FreeSans" font-size="10" font-style="normal" font-weight="normal" transform="translate(99.3302,423.83) rotate(-0,3,-8)" xml:space="preserve">
    <text fill="rgb(38,38,38)" x="0 " y="-0">0</text>
   </g>
   <g font-family="FreeSans" font-size="10" font-style="normal" font-weight="normal" transform="translate(195.004,423.83) rotate(-0,9,-8)" xml:space="preserve">
    <text fill="rgb(38,38,38)" x="0 6 12 " y="-0">200</text>
   </g>
   <g font-family="FreeSans" font-size="10" font-style="normal" font-weight="normal" transform="translate(296.679,423.83) rotate(-0,9,-8)" xml:space="preserve">
    <text fill="rgb(38,38,38)" x="0 6 12 " y="-0">400</text>
   </g>
   <g font-family="FreeSans" font-size="10" font-style="normal" font-weight="normal" transform="translate(398.353,423.83) rotate(-0,9,-8)" xml:space="preserve">
    <text fill="rgb(38,38,38)" x="0 6 12 " y="-0">600</text>
   </g>
   <g font-family="FreeSans" font-size="10" font-style="normal" font-weight="normal" transform="translate(500.027,423.83) rotate(-0,9,-8)" xml:space="preserve">
    <text fill="rgb(38,38,38)" x="0 6 12 " y="-0">800</text>
   </g>
   <g font-family="FreeSans" font-size="10" font-style="normal" font-weight="normal" transform="translate(598.701,423.83) rotate(-0,12,-8)" xml:space="preserve">
    <text fill="rgb(38,38,38)" x="0 6 12 18 " y="-0">1000</text>
   </g>
   <g font-family="FreeSans" font-size="10" font-style="normal" font-weight="normal" transform="translate(700.376,423.83) rotate(-0,12,-8)" xml:space="preserve">
    <text fill="rgb(38,38,38)" x="0 6 12 18 " y="-0">1200</text>
   </g>
   <polyline fill="none" points="102.33,408.331 108.431,408.331" stroke="#262626" stroke-linecap="butt" stroke-linejoin="miter" stroke-width="0.5"/>
   <polyline fill="none" points="712.376,408.331 706.275,408.331" stroke="#262626" stroke-linecap="butt" stroke-linejoin="miter" stroke-width="0.5"/>
   <polyline fill="none" points="102.33,346.011 108.431,346.011" stroke="#262626" stroke-linecap="butt" stroke-linejoin="miter" stroke-width="0.5"/>
   <polyline fill="none" points="712.376,346.011 706.275,346.011" stroke="#262626" stroke-linecap="butt" stroke-linejoin="miter" stroke-width="0.5"/>
   <polyline fill="none" points="102.33,283.691 108.431,283.691" stroke="#262626" stroke-linecap="butt" stroke-linejoin="miter" stroke-width="0.5"/>
   <polyline fill="none" points="712.376,283.691 706.275,283.691" stroke="#262626" stroke-linecap="butt" stroke-linejoin="miter" stroke-width="0.5"/>
   <polyline fill="none" points="102.33,221.371 108.431,221.371" stroke="#262626" stroke-linecap="butt" stroke-linejoin="miter" stroke-width="0.5"/>
   <polyline fill="none" points="712.376,221.371 706.275,221.371" stroke="#262626" stroke-linecap="butt" stroke-linejoin="miter" stroke-width="0.5"/>
   <polyline fill="none" points="102.33,159.05 108.431,159.05" stroke="#262626" stroke-linecap="butt" stroke-linejoin="miter" stroke-width="0.5"/>
   <polyline fill="none" points="712.376,159.05 706.275,159.05" stroke="#262626" stroke-linecap="butt" stroke-linejoin="miter" stroke-width="0.5"/>
   <polyline fill="none" points="102.33,96.7301 108.431,96.7301" stroke="#262626" stroke-linecap="butt" stroke-linejoin="miter" stroke-width="0.5"/>
   <polyline fill="none" points="712.376,96.7301 706.275,96.7301" stroke="#262626" stroke-linecap="butt" stroke-linejoin="miter" stroke-width="0.5"/>
   <polyline fill="none" points="102.33,34.4099 108.431,34.4099" stroke="#262626" stroke-linecap="butt" stroke-linejoin="miter" stroke-width="0.5"/>
   <polyline fill="none" points="712.376,34.4099 706.275,34.4099" stroke="#262626" stroke-linecap="butt" stroke-linejoin="miter" stroke-width="0.5"/>
   <g font-family="FreeSans" font-size="10" font-style="normal" font-weight="normal" transform="translate(91.3298,412.331) rotate(-0,6,-4)" xml:space="preserve">
    <text fill="rgb(38,38,38)" x="0 " y="-0">0</text>
   </g>
   <g font-family="FreeSans" font-size="10" font-style="normal" font-weight="normal" transform="translate(67.3298,350.011) rotate(-0,30,-4)" xml:space="preserve">
    <text fill="rgb(38,38,38)" x="0 6 12 18 24 " y="-0">50000</text>
   </g>
   <g font-family="FreeSans" font-size="10" font-style="normal" font-weight="normal" transform="translate(68.3298,287.691) rotate(-0,29,-4)" xml:space="preserve">
    <text fill="rgb(38,38,38)" x="0 6 11 17 23 " y="-0">1e+05</text>
   </g>
   <g font-family="FreeSans" font-size="10" font-style="normal" font-weight="normal" transform="translate(59.3298,225.371) rotate(-0,38,-4)" xml:space="preserve">
    <text fill="rgb(38,38,38)" x="0 6 9 15 20 26 32 " y="-0">1.5e+05</text>
   </g>
   <g font-family="FreeSans" font-size="10" font-style="normal" font-weight="normal" transform="translate(68.3298,163.05) rotate(-0,29,-4)" xml:space="preserve">
    <text fill="rgb(38,38,38)" x="0 6 11 17 23 " y="-0">2e+05</text>
   </g>
   <g font-family="FreeSans" font-size="10" font-style="normal" font-weight="normal" transform="translate(59.3298,100.73) rotate(-0,38,-4)" xml:space="preserve">
    <text fill="rgb(38,38,38)" x="0 6 9 15 20 26 32 " y="-0">2.5e+05</text>
   </g>
   <g font-family="FreeSans" font-size="10" font-style="normal" font-weight="normal" transform="translate(68.3298,38.4099) rotate(-0,29,-4)" xml:space="preserve">
    <text fill="rgb(38,38,38)" x="0 6 11 17 23 " y="-0">3e+05</text>
   </g>
   <polyline fill="none" points="102.33,408.331 712.376,408.331" stroke="#262626" stroke-dasharray="16,0" stroke-linecap="square" stroke-linejoin="miter" stroke-width="0.5"/>
   <polyline fill="none" points="102.33,34.4099 712.376,34.4099" stroke="#262626" stroke-dasharray="16,0" stroke-linecap="square" stroke-linejoin="miter" stroke-width="0.5"/>
   <polyline fill="none" points="102.33,408.331 102.33,34.4099" stroke="#262626" stroke-dasharray="16,0" stroke-linecap="square" stroke-linejoin="miter" stroke-width="0.5"/>
   <polyline fill="none" points="712.376,408.331 712.376,34.4099" stroke="#262626" stroke-dasharray="16,0" stroke-linecap="square" stroke-linejoin="miter" stroke-width="0.5"/>
   <polyline fill="none" points="102.839,382.668 103.347,407.182 103.855,407.913 104.364,407.52 104.872,408.1 105.38,407.286 105.889,408.008 106.397,407.632 106.906,407.996 107.414,407.435 107.922,408.076 108.431,407.592 108.939,407.613 109.447,407.441 109.956,407.3 110.464,407.964 110.972,407.959 111.481,407.662 111.989,408.23 112.498,407.767 113.006,407.476 113.514,407.653 114.023,406.972 114.531,407.809 115.039,407.925 115.548,407.154 116.056,407.686 116.565,407.732 117.073,407.415 117.581,407.463 118.09,407.292 118.598,407.811 119.106,407.131 119.615,408.008 120.123,407.044 120.632,406.934 121.14,407.485 121.648,407.214 122.157,407.09 122.665,406.662 123.173,406.705 123.682,406.678 124.19,407.155 124.699,406.783 125.207,406.673 125.715,406.948 126.224,406.825 126.732,406.648 127.24,407.364 127.749,406.333 128.257,405.881 128.765,404.379 129.274,407.032 129.782,407.638 130.291,406.943 130.799,407.23 131.307,407.347 131.816,405.038 132.324,406.436 132.832,406.119 133.341,406.477 133.849,404.829 134.358,404.761 134.866,405.254 135.374,404.836 135.883,405.004 136.391,404.77 136.899,404.525 137.408,403.674 137.916,402.912 138.425,403.234 138.933,401.969 139.441,400.583 139.95,400.657 140.458,399.822 140.966,398.215 141.475,396.842 141.983,395.796 142.492,392.966 143,387.842 143.508,382.12 144.017,374.013 144.525,360.019 145.033,327.752 145.542,191.103 146.05,55.2441 146.558,315.766 147.067,353.452 147.575,368.06 148.084,377.416 148.592,383.592 149.1,387.452 149.609,390.464 150.117,393.639 150.625,395.493 151.134,396.948 151.642,398.806 152.151,399.641 152.659,400.839 153.167,401.798 153.676,402.602 154.184,403.641 154.692,404.913 155.201,405.454 155.709,406.149 156.218,405.592 156.726,406.699 157.234,406.576 157.743,406.524 158.251,405.89 158.759,406.591 159.268,407.159 159.776,404.617 160.285,406.003 160.793,405.243 161.301,404.12 161.81,405.134 162.318,404.69 162.826,404.856 163.335,404.891 163.843,404.671 164.351,404.856 164.86,404.225 165.368,403.89 165.877,405.298 166.385,404.815 166.893,404.283 167.402,405.08 167.91,405.425 168.418,405.347 168.927,405.324 169.435,404.843 169.944,405.087 170.452,405.796 170.96,405.626 171.469,405.477 171.977,405.473 172.485,406.266 172.994,405.529 173.502,406.306 174.011,404.45 174.519,405.603 175.027,404.771 175.536,405.461 176.044,405.73 176.552,404.136 177.061,404.756 177.569,404.946 178.078,405.106 178.586,405.414 179.094,403.863 179.603,405.937 180.111,405.188 180.619,405.014 181.128,405.779 181.636,405.292 182.144,405.635 182.653,405.348 183.161,405.545 183.67,405.424 184.178,405.116 184.686,404.939 185.195,405.909 185.703,405.152 186.211,404.937 186.72,404.245 187.228,404.206 187.737,402.578 188.245,399.351 188.753,234.006 189.262,397.354 189.77,403.575 190.278,407.121 190.787,407.421 191.295,408.081 191.804,407.012 192.312,406.608 192.82,405.405 193.329,406.197 193.837,406.219 194.345,406.542 194.854,405.203 195.362,405.461 195.87,405.712 196.379,406.444 196.887,405.23 197.396,405.605 197.904,405.945 198.412,405.527 198.921,406.096 199.429,406.011 199.937,405.535 200.446,405.24 200.954,405.558 201.463,406.173 201.971,406.253 202.479,405.719 202.988,406.201 203.496,405.702 204.004,405.932 204.513,407.279 205.021,405.808 205.53,406.681 206.038,407.067 206.546,407.096 207.055,406.312 207.563,405.604 208.071,407.433 208.58,405.949 209.088,406.104 209.597,407.339 210.105,406.778 210.613,406.797 211.122,406.797 211.63,406.87 212.138,407.453 212.647,407.29 213.155,407.403 213.663,407.369 214.172,407.003 214.68,407.821 215.189,408.027 215.697,406.646 216.205,405.957 216.714,406.349 217.222,406.468 217.73,406.348 218.239,405.563 218.747,405.764 219.256,405.284 219.764,405.193 220.272,404.782 220.781,404.613 221.289,404.073 221.797,403.839 222.306,404.611 222.814,403.253 223.323,403.118 223.831,403.293 224.339,403.268 224.848,402.082 225.356,401.113 225.864,401.363 226.373,400.13 226.881,400.069 227.39,399.587 227.898,399.449 228.406,398.178 228.915,395.952 229.423,395.872 229.931,392.644 230.44,386.933 230.948,375.482 231.456,345.674 231.965,198.691 232.473,380.781 232.982,391.091 233.49,396.827 233.998,400.053 234.507,403.615 235.015,404.707 235.523,405.791 236.032,406.695 236.54,407.143 237.049,408.317 237.557,406.445 238.065,407.848 238.574,408.002 239.082,407.238 239.59,406.413 240.099,406.67 240.607,406.237 241.116,405.97 241.624,406.578 242.132,406.479 242.641,406.318 243.149,406.555 243.657,406.303 244.166,406.769 244.674,407.412 245.182,406.202 245.691,406.889 246.199,406.749 246.708,407.703 247.216,407.389 247.724,407.062 248.233,407.612 248.741,407.452 249.249,407.261 249.758,407.078 250.266,407.191 250.775,407.165 251.283,407.543 251.791,407.273 252.3,407.337 252.808,407.316 253.316,407.502 253.825,407.593 254.333,408.026 254.842,407.471 255.35,407.885 255.858,407.801 256.367,408.155 256.875,407.765 257.383,408.205 257.892,407.476 258.4,408.04 258.909,408.195 259.417,407.73 259.925,407.059 260.434,407.112 260.942,407.826 261.45,407.562 261.959,408.269 262.467,407.93 262.975,407.751 263.484,408.082 263.992,408.081 264.501,407.843 265.009,406.663 265.517,407.238 266.026,407.798 266.534,407.884 267.042,407.697 267.551,407.956 268.059,407.668 268.568,406.952 269.076,407.431 269.584,407.596 270.093,406.385 270.601,406.933 271.109,406.814 271.618,406.443 272.126,407.441 272.635,404.918 273.143,405.788 273.651,403.829 274.16,400.372 274.668,380.939 275.176,381.195 275.685,400.86 276.193,402.926 276.702,404.717 277.21,404.713 277.718,406.067 278.227,405.395 278.735,406.46 279.243,407.16 279.752,406.663 280.26,407.45 280.768,407.125 281.277,407.247 281.785,407.875 282.294,407.518 282.802,406.98 283.31,407.125 283.819,406.864 284.327,407.705 284.835,407.009 285.344,408.048 285.852,407.873 286.361,407.396 286.869,407.213 287.377,407.469 287.886,407.92 288.394,407.37 288.902,407.276 289.411,407.651 289.919,407.208 290.428,407.865 290.936,407.179 291.444,407.543 291.953,406.707 292.461,407.164 292.969,407.482 293.478,406.74 293.986,406.879 294.495,407.827 295.003,408.038 295.511,407.942 296.02,406.9 296.528,407.247 297.036,407.658 297.545,407.545 298.053,407.238 298.561,407.551 299.07,407.717 299.578,407.343 300.087,407.588 300.595,407.895 301.103,408.037 301.612,407.74 302.12,407.683 302.628,407.902 303.137,407.606 303.645,407.483 304.154,407.698 304.662,407.268 305.17,407.639 305.679,408.024 306.187,407.27 306.695,406.991 307.204,407.628 307.712,408.02 308.221,408.151 308.729,406.468 309.237,402.575 309.746,403.778 310.254,406.971 310.762,406.743 311.271,407.76 311.779,407.621 312.288,407.571 312.796,407.803 313.304,406.694 313.813,407.343 314.321,407.912 314.829,407.517 315.338,408.093 315.846,407.98 316.354,407.883 316.863,406.949 317.371,406.678 317.88,403.5 318.388,399.401 318.896,407.715 319.405,408.15 319.913,408.098 320.421,407.341 320.93,407.948 321.438,408.078 321.947,408.303 322.455,407.331 322.963,407.763 323.472,407.834 323.98,407.461 324.488,408.097 324.997,408.146 325.505,407.548 326.014,407.905 326.522,407.792 327.03,408.085 327.539,407.264 328.047,407.442 328.555,407.74 329.064,407.982 329.572,407.709 330.081,407.427 330.589,408.022 331.097,407.583 331.606,407.082 332.114,407.663 332.622,407.479 333.131,408.081 333.639,407.417 334.147,408.075 334.656,407.481 335.164,407.04 335.673,408.121 336.181,407.602 336.689,407.86 337.198,408.167 337.706,408.119 338.214,407.994 338.723,407.814 339.231,407.733 339.74,406.767 340.248,407.557 340.756,407.184 341.265,406.56 341.773,407.957 342.281,408.022 342.79,407.955 343.298,407.702 343.807,407.885 344.315,407.03 344.823,408.03 345.332,408.03 345.84,407.993 346.348,407.384 346.857,407.035 347.365,407.934 347.873,408.183 348.382,408.015 348.89,407.371 349.399,405.82 349.907,407.906 350.415,406.246 350.924,407.608 351.432,406.54 351.94,405.034 352.449,401.168 352.957,403.323 353.466,406.201 353.974,405.095 354.482,406.842 354.991,407.673 355.499,407.114 356.007,407.413 356.516,408.215 357.024,407.917 357.533,407.917 358.041,408.215 358.549,407.413 359.058,407.114 359.566,407.673 360.074,406.842 360.583,405.095 361.091,406.201 361.599,403.323 362.108,401.168 362.616,405.034 363.125,406.54 363.633,407.608 364.141,406.246 364.65,407.906 365.158,405.82 365.666,407.371 366.175,408.015 366.683,408.183 367.192,407.934 367.7,407.035 368.208,407.384 368.717,407.993 369.225,408.03 369.733,408.03 370.242,407.03 370.75,407.885 371.259,407.702 371.767,407.955 372.275,408.022 372.784,407.957 373.292,406.56 373.8,407.184 374.309,407.557 374.817,406.767 375.326,407.733 375.834,407.814 376.342,407.994 376.851,408.119 377.359,408.167 377.867,407.86 378.376,407.602 378.884,408.121 379.392,407.04 379.901,407.481 380.409,408.075 380.918,407.417 381.426,408.081 381.934,407.479 382.443,407.663 382.951,407.082 383.459,407.583 383.968,408.022 384.476,407.427 384.985,407.709 385.493,407.982 386.001,407.74 386.51,407.442 387.018,407.264 387.526,408.085 388.035,407.792 388.543,407.905 389.052,407.548 389.56,408.146 390.068,408.097 390.577,407.461 391.085,407.834 391.593,407.763 392.102,407.331 392.61,408.303 393.118,408.078 393.627,407.948 394.135,407.341 394.644,408.098 395.152,408.15 395.66,407.715 396.169,399.401 396.677,403.5 397.185,406.678 397.694,406.949 398.202,407.883 398.711,407.98 399.219,408.093 399.727,407.517 400.236,407.912 400.744,407.343 401.252,406.694 401.761,407.803 402.269,407.571 402.778,407.621 403.286,407.76 403.794,406.743 404.303,406.971 404.811,403.778 405.319,402.575 405.828,406.468 406.336,408.151 406.845,408.02 407.353,407.628 407.861,406.991 408.37,407.27 408.878,408.024 409.386,407.639 409.895,407.268 410.403,407.698 410.911,407.483 411.42,407.606 411.928,407.902 412.437,407.683 412.945,407.74 413.453,408.037 413.962,407.895 414.47,407.588 414.978,407.343 415.487,407.717 415.995,407.551 416.504,407.238 417.012,407.545 417.52,407.658 418.029,407.247 418.537,406.9 419.045,407.942 419.554,408.038 420.062,407.827 420.571,406.879 421.079,406.74 421.587,407.482 422.096,407.164 422.604,406.707 423.112,407.543 423.621,407.179 424.129,407.865 424.638,407.208 425.146,407.651 425.654,407.276 426.163,407.37 426.671,407.92 427.179,407.469 427.688,407.213 428.196,407.396 428.704,407.873 429.213,408.048 429.721,407.009 430.23,407.705 430.738,406.864 431.246,407.125 431.755,406.98 432.263,407.518 432.771,407.875 433.28,407.247 433.788,407.125 434.297,407.45 434.805,406.663 435.313,407.16 435.822,406.46 436.33,405.395 436.838,406.067 437.347,404.713 437.855,404.717 438.364,402.926 438.872,400.86 439.38,381.195 439.889,380.939 440.397,400.372 440.905,403.829 441.414,405.788 441.922,404.918 442.431,407.441 442.939,406.443 443.447,406.814 443.956,406.933 444.464,406.385 444.972,407.596 445.481,407.431 445.989,406.952 446.497,407.668 447.006,407.956 447.514,407.697 448.023,407.884 448.531,407.798 449.039,407.238 449.548,406.663 450.056,407.843 450.564,408.081 451.073,408.082 451.581,407.751 452.09,407.93 452.598,408.269 453.106,407.562 453.615,407.826 454.123,407.112 454.631,407.059 455.14,407.73 455.648,408.195 456.157,408.04 456.665,407.476 457.173,408.205 457.682,407.765 458.19,408.155 458.698,407.801 459.207,407.885 459.715,407.471 460.224,408.026 460.732,407.593 461.24,407.502 461.749,407.316 462.257,407.337 462.765,407.273 463.274,407.543 463.782,407.165 464.29,407.191 464.799,407.078 465.307,407.261 465.816,407.452 466.324,407.612 466.832,407.062 467.341,407.389 467.849,407.703 468.357,406.749 468.866,406.889 469.374,406.202 469.883,407.412 470.391,406.769 470.899,406.303 471.408,406.555 471.916,406.318 472.424,406.479 472.933,406.578 473.441,405.97 473.95,406.237 474.458,406.67 474.966,406.413 475.475,407.238 475.983,408.002 476.491,407.848 477,406.445 477.508,408.317 478.017,407.143 478.525,406.695 479.033,405.791 479.542,404.707 480.05,403.615 480.558,400.053 481.067,396.827 481.575,391.091 482.083,380.781 482.592,198.691 483.1,345.674 483.609,375.482 484.117,386.933 484.625,392.644 485.134,395.872 485.642,395.952 486.15,398.178 486.659,399.449 487.167,399.587 487.676,400.069 488.184,400.13 488.692,401.363 489.201,401.113 489.709,402.082 490.217,403.268 490.726,403.293 491.234,403.118 491.743,403.253 492.251,404.611 492.759,403.839 493.268,404.073 493.776,404.613 494.284,404.782 494.793,405.193 495.301,405.284 495.81,405.764 496.318,405.563 496.826,406.348 497.335,406.468 497.843,406.349 498.351,405.957 498.86,406.646 499.368,408.027 499.876,407.821 500.385,407.003 500.893,407.369 501.402,407.403 501.91,407.29 502.418,407.453 502.927,406.87 503.435,406.797 503.943,406.797 504.452,406.778 504.96,407.339 505.469,406.104 505.977,405.949 506.485,407.433 506.994,405.604 507.502,406.312 508.01,407.096 508.519,407.067 509.027,406.681 509.535,405.808 510.044,407.279 510.552,405.932 511.061,405.702 511.569,406.201 512.077,405.719 512.586,406.253 513.094,406.173 513.602,405.558 514.111,405.24 514.619,405.535 515.128,406.011 515.636,406.096 516.144,405.527 516.653,405.945 517.161,405.605 517.669,405.23 518.178,406.444 518.686,405.712 519.195,405.461 519.703,405.203 520.211,406.542 520.72,406.219 521.228,406.197 521.736,405.405 522.245,406.608 522.753,407.012 523.262,408.081 523.77,407.421 524.278,407.121 524.787,403.575 525.295,397.354 525.803,234.006 526.312,399.351 526.82,402.578 527.328,404.206 527.837,404.245 528.345,404.937 528.854,405.152 529.362,405.909 529.87,404.939 530.379,405.116 530.887,405.424 531.396,405.545 531.904,405.348 532.412,405.635 532.921,405.292 533.429,405.779 533.937,405.014 534.446,405.188 534.954,405.937 535.462,403.863 535.971,405.414 536.479,405.106 536.988,404.946 537.496,404.756 538.004,404.136 538.513,405.73 539.021,405.461 539.529,404.771 540.038,405.603 540.546,404.45 541.055,406.306 541.563,405.529 542.071,406.266 542.58,405.473 543.088,405.477 543.596,405.626 544.105,405.796 544.613,405.087 545.122,404.843 545.63,405.324 546.138,405.347 546.647,405.425 547.155,405.08 547.663,404.283 548.172,404.815 548.68,405.298 549.188,403.89 549.697,404.225 550.205,404.856 550.714,404.671 551.222,404.891 551.73,404.856 552.239,404.69 552.747,405.134 553.255,404.12 553.764,405.243 554.272,406.003 554.781,404.617 555.289,407.159 555.797,406.591 556.306,405.89 556.814,406.524 557.322,406.576 557.831,406.699 558.339,405.592 558.847,406.149 559.356,405.454 559.864,404.913 560.373,403.641 560.881,402.602 561.389,401.798 561.898,400.839 562.406,399.641 562.914,398.806 563.423,396.948 563.931,395.493 564.44,393.639 564.948,390.464 565.456,387.452 565.965,383.592 566.473,377.416 566.981,368.06 567.49,353.452 567.998,315.766 568.507,55.2441 569.015,191.103 569.523,327.752 570.032,360.019 570.54,374.013 571.048,382.12 571.557,387.842 572.065,392.966 572.574,395.796 573.082,396.842 573.59,398.215 574.099,399.822 574.607,400.657 575.115,400.583 575.624,401.969 576.132,403.234 576.641,402.912 577.149,403.674 577.657,404.525 578.166,404.77 578.674,405.004 579.182,404.836 579.691,405.254 580.199,404.761 580.708,404.829 581.216,406.477 581.724,406.119 582.233,406.436 582.741,405.038 583.249,407.347 583.758,407.23 584.266,406.943 584.774,407.638 585.283,407.032 585.791,404.379 586.3,405.881 586.808,406.333 587.316,407.364 587.825,406.648 588.333,406.825 588.841,406.948 589.35,406.673 589.858,406.783 590.367,407.155 590.875,406.678 591.383,406.705 591.892,406.662 592.4,407.09 592.908,407.214 593.417,407.485 593.925,406.934 594.433,407.044 594.942,408.008 595.45,407.131 595.959,407.811 596.467,407.292 596.975,407.463 597.484,407.415 597.992,407.732 598.5,407.686 599.009,407.154 599.517,407.925 600.026,407.809 600.534,406.972 601.042,407.653 601.551,407.476 602.059,407.767 602.567,408.23 603.076,407.662 603.584,407.959 604.093,407.964 604.601,407.3 605.109,407.441 605.618,407.613 606.126,407.592 606.634,408.076 607.143,407.435 607.651,407.996 608.16,407.632 608.668,408.008 609.176,407.286 609.685,408.1 610.193,407.52 610.701,407.913 611.21,407.182" stroke="#0071bc" stroke-linecap="butt" stroke-linejoin="round" stroke-width="0.5"/>
  </g>
 </g>
</svg>
