<?xml version='1.0' encoding='UTF-8' standalone='no'?>
<svg height="458pt" viewBox="0 0 787 458" width="787pt" xmlns="http://www.w3.org/2000/svg" xmlns:xlink="http://www.w3.org/1999/xlink">
 <title>Figure 1</title>
 <desc>
Creator: GL2PS 1.4.2, (C) 1999-2020 C. Geuzaine
For: Octave
CreationDate: Thu Jan 30 15:37:53 2025
</desc>
 <defs/>
 <polygon fill="#ffffff" points="0,0 787,0 787,458 0,458"/>
 <g>
  <polygon fill="#ffffff" points="0,458 787,458 787,0 0,0" shape-rendering="crispEdges"/>
  <clipPath id="cp00787458">
   <polygon points="0,458 787,458 787,0 0,0"/>
  </clipPath>
  <g clip-path="url(#cp00787458)">
   <polygon fill="#ffffff" points="102.33,408.331 712.376,408.331 712.376,34.4099 102.33,34.4099" shape-rendering="crispEdges"/>
   <polyline fill="none" points="102.33,408.331 102.33,402.232" stroke="#262626" stroke-linecap="butt" stroke-linejoin="miter" stroke-width="0.5"/>
   <polyline fill="none" points="102.33,34.4099 102.33,40.5091" stroke="#262626" stroke-linecap="butt" stroke-linejoin="miter" stroke-width="0.5"/>
   <polyline fill="none" points="204.004,408.331 204.004,402.232" stroke="#262626" stroke-linecap="butt" stroke-linejoin="miter" stroke-width="0.5"/>
   <polyline fill="none" points="204.004,34.4099 204.004,40.5091" stroke="#262626" stroke-linecap="butt" stroke-linejoin="miter" stroke-width="0.5"/>
   <polyline fill="none" points="305.679,408.331 305.679,402.232" stroke="#262626" stroke-linecap="butt" stroke-linejoin="miter" stroke-width="0.5"/>
   <polyline fill="none" points="305.679,34.4099 305.679,40.5091" stroke="#262626" stroke-linecap="butt" stroke-linejoin="miter" stroke-width="0.5"/>
   <polyline fill="none" points="407.353,408.331 407.353,402.232" stroke="#262626" stroke-linecap="butt" stroke-linejoin="miter" stroke-width="0.5"/>
   <polyline fill="none" points="407.353,34.4099 407.353,40.5091" stroke="#262626" stroke-linecap="butt" stroke-linejoin="miter" stroke-width="0.5"/>
   <polyline fill="none" points="509.027,408.331 509.027,402.232" stroke="#262626" stroke-linecap="butt" stroke-linejoin="miter" stroke-width="0.5"/>
   <polyline fill="none" points="509.027,34.4099 509.027,40.5091" stroke="#262626" stroke-linecap="butt" stroke-linejoin="miter" stroke-width="0.5"/>
   <polyline fill="none" points="610.701,408.331 610.701,402.232" stroke="#262626" stroke-linecap="butt" stroke-linejoin="miter" stroke-width="0.5"/>
   <polyline fill="none" points="610.701,34.4099 610.701,40.5091" stroke="#262626" stroke-linecap="butt" stroke-linejoin="miter" stroke-width="0.5"/>
   <polyline fill="none" points="712.376,408.331 712.376,402.232" stroke="#262626" stroke-linecap="butt" stroke-linejoin="miter" stroke-width="0.5"/>
   <polyline fill="none" points="712.376,34.4099 712.376,40.5091" stroke="#262626" stroke-linecap="butt" stroke-linejoin="miter" stroke-width="0.5"/>
   <g font-family="FreeSans" font-size="10" font-style="normal" font-weight="normal" transform="translate(99.3302,423.83) rotate(-0,3,-8)" xml:space="preserve">
    <text fill="rgb(38,38,38)" x="0 " y="-0">0</text>
   </g>
   <g font-family="FreeSans" font-size="10" font-style="normal" font-weight="normal" transform="translate(195.004,423.83) rotate(-0,9,-8)" xml:space="preserve">
    <text fill="rgb(38,38,38)" x="0 6 12 " y="-0">200</text>
   </g>
   <g font-family="FreeSans" font-size="10" font-style="normal" font-weight="normal" transform="translate(296.679,423.83) rotate(-0,9,-8)" xml:space="preserve">
    <text fill="rgb(38,38,38)" x="0 6 12 " y="-0">400</text>
   </g>
   <g font-family="FreeSans" font-size="10" font-style="normal" font-weight="normal" transform="translate(398.353,423.83) rotate(-0,9,-8)" xml:space="preserve">
    <text fill="rgb(38,38,38)" x="0 6 12 " y="-0">600</text>
   </g>
   <g font-family="FreeSans" font-size="10" font-style="normal" font-weight="normal" transform="translate(500.027,423.83) rotate(-0,9,-8)" xml:space="preserve">
    <text fill="rgb(38,38,38)" x="0 6 12 " y="-0">800</text>
   </g>
   <g font-family="FreeSans" font-size="10" font-style="normal" font-weight="normal" transform="translate(598.701,423.83) rotate(-0,12,-8)" xml:space="preserve">
    <text fill="rgb(38,38,38)" x="0 6 12 18 " y="-0">1000</text>
   </g>
   <g font-family="FreeSans" font-size="10" font-style="normal" font-weight="normal" transform="translate(700.376,423.83) rotate(-0,12,-8)" xml:space="preserve">
    <text fill="rgb(38,38,38)" x="0 6 12 18 " y="-0">1200</text>
   </g>
   <polyline fill="none" points="102.33,408.331 108.431,408.331" stroke="#262626" stroke-linecap="butt" stroke-linejoin="miter" stroke-width="0.5"/>
   <polyline fill="none" points="712.376,408.331 706.275,408.331" stroke="#262626" stroke-linecap="butt" stroke-linejoin="miter" stroke-width="0.5"/>
   <polyline fill="none" points="102.33,333.547 108.431,333.547" stroke="#262626" stroke-linecap="butt" stroke-linejoin="miter" stroke-width="0.5"/>
   <polyline fill="none" points="712.376,333.547 706.275,333.547" stroke="#262626" stroke-linecap="butt" stroke-linejoin="miter" stroke-width="0.5"/>
   <polyline fill="none" points="102.33,258.763 108.431,258.763" stroke="#262626" stroke-linecap="butt" stroke-linejoin="miter" stroke-width="0.5"/>
   <polyline fill="none" points="712.376,258.763 706.275,258.763" stroke="#262626" stroke-linecap="butt" stroke-linejoin="miter" stroke-width="0.5"/>
   <polyline fill="none" points="102.33,183.978 108.431,183.978" stroke="#262626" stroke-linecap="butt" stroke-linejoin="miter" stroke-width="0.5"/>
   <polyline fill="none" points="712.376,183.978 706.275,183.978" stroke="#262626" stroke-linecap="butt" stroke-linejoin="miter" stroke-width="0.5"/>
   <polyline fill="none" points="102.33,109.194 108.431,109.194" stroke="#262626" stroke-linecap="butt" stroke-linejoin="miter" stroke-width="0.5"/>
   <polyline fill="none" points="712.376,109.194 706.275,109.194" stroke="#262626" stroke-linecap="butt" stroke-linejoin="miter" stroke-width="0.5"/>
   <polyline fill="none" points="102.33,34.4099 108.431,34.4099" stroke="#262626" stroke-linecap="butt" stroke-linejoin="miter" stroke-width="0.5"/>
   <polyline fill="none" points="712.376,34.4099 706.275,34.4099" stroke="#262626" stroke-linecap="butt" stroke-linejoin="miter" stroke-width="0.5"/>
   <g font-family="FreeSans" font-size="10" font-style="normal" font-weight="normal" transform="translate(91.3298,412.331) rotate(-0,6,-4)" xml:space="preserve">
    <text fill="rgb(38,38,38)" x="0 " y="-0">0</text>
   </g>
   <g font-family="FreeSans" font-size="10" font-style="normal" font-weight="normal" transform="translate(73.3298,337.547) rotate(-0,24,-4)" xml:space="preserve">
    <text fill="rgb(38,38,38)" x="0 6 12 18 " y="-0">5000</text>
   </g>
   <g font-family="FreeSans" font-size="10" font-style="normal" font-weight="normal" transform="translate(67.3298,262.763) rotate(-0,30,-4)" xml:space="preserve">
    <text fill="rgb(38,38,38)" x="0 6 12 18 24 " y="-0">10000</text>
   </g>
   <g font-family="FreeSans" font-size="10" font-style="normal" font-weight="normal" transform="translate(67.3298,187.978) rotate(-0,30,-4)" xml:space="preserve">
    <text fill="rgb(38,38,38)" x="0 6 12 18 24 " y="-0">15000</text>
   </g>
   <g font-family="FreeSans" font-size="10" font-style="normal" font-weight="normal" transform="translate(67.3298,113.194) rotate(-0,30,-4)" xml:space="preserve">
    <text fill="rgb(38,38,38)" x="0 6 12 18 24 " y="-0">20000</text>
   </g>
   <g font-family="FreeSans" font-size="10" font-style="normal" font-weight="normal" transform="translate(67.3298,38.4099) rotate(-0,30,-4)" xml:space="preserve">
    <text fill="rgb(38,38,38)" x="0 6 12 18 24 " y="-0">25000</text>
   </g>
   <polyline fill="none" points="102.33,408.331 712.376,408.331" stroke="#262626" stroke-dasharray="16,0" stroke-linecap="square" stroke-linejoin="miter" stroke-width="0.5"/>
   <polyline fill="none" points="102.33,34.4099 712.376,34.4099" stroke="#262626" stroke-dasharray="16,0" stroke-linecap="square" stroke-linejoin="miter" stroke-width="0.5"/>
   <polyline fill="none" points="102.33,408.331 102.33,34.4099" stroke="#262626" stroke-dasharray="16,0" stroke-linecap="square" stroke-linejoin="miter" stroke-width="0.5"/>
   <polyline fill="none" points="712.376,408.331 712.376,34.4099" stroke="#262626" stroke-dasharray="16,0" stroke-linecap="square" stroke-linejoin="miter" stroke-width="0.5"/>
   <polyline fill="none" points="102.839,81.2249 103.347,406.657 103.855,401.163 104.364,397.909 104.872,405.06 105.38,401.837 105.889,405.672 106.397,404.93 106.906,405.135 107.414,407.332 107.922,397.314 108.431,397.853 108.939,403.861 109.447,396.044 109.956,404.319 110.464,403.666 110.972,407.125 111.481,397.076 111.989,406.314 112.498,405.991 113.006,397.055 113.514,394.157 114.023,403.372 114.531,397.757 115.039,395.736 115.548,402.509 116.056,399.247 116.565,404.33 117.073,392.246 117.581,405.741 118.09,405.109 118.598,396.338 119.106,399.601 119.615,405.546 120.123,397.475 120.632,399.552 121.14,394.893 121.648,393.045 122.157,403.053 122.665,399.408 123.173,398.195 123.682,389.245 124.19,399.067 124.699,404.746 125.207,391.177 125.715,403.04 126.224,399.542 126.732,394.744 127.24,405.468 127.749,397.384 128.257,393.725 128.765,387.534 129.274,395.348 129.782,407.937 130.291,404.396 130.799,404.211 131.307,407.395 131.816,383.061 132.324,396.482 132.832,397.931 133.341,401 133.849,405.126 134.358,398.432 134.866,403.785 135.374,406.114 135.883,404.411 136.391,402.835 136.899,398.817 137.408,401.951 137.916,403.682 138.425,404.03 138.933,394.6 139.441,400.709 139.95,402.71 140.458,395.647 140.966,395.639 141.475,401.852 141.983,397.914 142.492,398.24 143,401.085 143.508,406.794 144.017,404.199 144.525,405.749 145.033,402.258 145.542,396.262 146.05,404.789 146.558,405.089 147.067,403.828 147.575,393.127 148.084,405.784 148.592,399.776 149.1,397.895 149.609,397.893 150.117,399.027 150.625,397.658 151.134,400.356 151.642,401.365 152.151,401.729 152.659,402.795 153.167,402.283 153.676,406.324 154.184,398.333 154.692,405.083 155.201,398.187 155.709,400.199 156.218,395.283 156.726,404.162 157.234,404.119 157.743,400.026 158.251,405.91 158.759,398.908 159.268,406.677 159.776,405.826 160.285,405.473 160.793,401.048 161.301,403.749 161.81,402.902 162.318,395.065 162.826,394.959 163.335,400.627 163.843,398.881 164.351,392.38 164.86,402.586 165.368,402.329 165.877,401.75 166.385,406.762 166.893,396.479 167.402,399.961 167.91,398.951 168.418,389.599 168.927,392.955 169.435,402.94 169.944,407.263 170.452,406.936 170.96,405.878 171.469,407.191 171.977,402.42 172.485,397.445 172.994,402.569 173.502,401.524 174.011,401.2 174.519,402.701 175.027,403.414 175.536,403.854 176.044,403.636 176.552,406.404 177.061,403.606 177.569,397.335 178.078,401.648 178.586,405.329 179.094,394.088 179.603,396.826 180.111,406.568 180.619,395.209 181.128,405.355 181.636,400.816 182.144,393.463 182.653,398.764 183.161,403.103 183.67,404.423 184.178,402.117 184.686,403.131 185.195,395.506 185.703,402.768 186.211,396.171 186.72,404.45 187.228,405.307 187.737,394.704 188.245,402.918 188.753,382.748 189.262,396.871 189.77,406.837 190.278,405.394 190.787,397.132 191.295,398.825 191.804,404.285 192.312,403.867 192.82,401.164 193.329,405.813 193.837,395.562 194.345,403.016 194.854,397.351 195.362,395.29 195.87,406.215 196.379,399.684 196.887,399.091 197.396,403.755 197.904,391.075 198.412,400.561 198.921,403.353 199.429,400.705 199.937,395.101 200.446,398.107 200.954,407.524 201.463,401.156 201.971,406.572 202.479,398.678 202.988,393.884 203.496,407.83 204.004,403.376 204.513,406.635 205.021,402.975 205.53,398.859 206.038,403.912 206.546,401.517 207.055,405.374 207.563,405.781 208.071,402.546 208.58,400.648 209.088,398.953 209.597,403.174 210.105,396.263 210.613,394.078 211.122,397.674 211.63,401.606 212.138,404.512 212.647,402.071 213.155,400.963 213.663,407.212 214.172,391.465 214.68,402.43 215.189,400.547 215.697,397.499 216.205,400.487 216.714,401.466 217.222,400.022 217.73,399.276 218.239,391.478 218.747,398.663 219.256,401.185 219.764,404.208 220.272,406.212 220.781,407.579 221.289,396.952 221.797,400.417 222.306,403.423 222.814,405.183 223.323,394.543 223.831,397.224 224.339,402.243 224.848,395.945 225.356,402.537 225.864,397.35 226.373,402.232 226.881,404.529 227.39,397.15 227.898,397.682 228.406,394.729 228.915,403.371 229.423,396.239 229.931,402.181 230.44,382.397 230.948,402.218 231.456,403.12 231.965,403.223 232.473,401.286 232.982,407.352 233.49,392.568 233.998,399.894 234.507,387.158 235.015,397.015 235.523,401.703 236.032,392.298 236.54,402.714 237.049,403.273 237.557,397.316 238.065,397.208 238.574,406.077 239.082,398.428 239.59,403.518 240.099,391.611 240.607,399.029 241.116,400.415 241.624,402.992 242.132,402.422 242.641,406.157 243.149,406.196 243.657,402.694 244.166,407.106 244.674,399.224 245.182,403.835 245.691,399.912 246.199,401.027 246.708,395.314 247.216,402.944 247.724,402.649 248.233,405.391 248.741,405.293 249.249,404.689 249.758,399.176 250.266,388.745 250.775,399.704 251.283,404.11 251.791,404.925 252.3,399.566 252.808,403.247 253.316,406.723 253.825,401.262 254.333,399.945 254.842,397.128 255.35,401.743 255.858,403.707 256.367,396.9 256.875,401.405 257.383,402.505 257.892,398.255 258.4,405.464 258.909,399.495 259.417,407.559 259.925,399.903 260.434,405.774 260.942,403.764 261.45,400.724 261.959,402.534 262.467,401.632 262.975,403.582 263.484,406.764 263.992,405.679 264.501,403.507 265.009,405.788 265.517,403.171 266.026,393.57 266.534,397.607 267.042,402.629 267.551,402.125 268.059,405.005 268.568,390.927 269.076,396.735 269.584,405.987 270.093,388.78 270.601,395.899 271.109,398.454 271.618,395.135 272.126,387.605 272.635,390.745 273.143,369.199 273.651,204.772 274.16,384.855 274.668,406.453 275.176,402.395 275.685,403.593 276.193,398.013 276.702,404.55 277.21,396.49 277.718,392.796 278.227,400.876 278.735,400.737 279.243,403.911 279.752,404.105 280.26,402.602 280.768,398.652 281.277,402.117 281.785,398.22 282.294,396.543 282.802,394.799 283.31,401.304 283.819,402.531 284.327,404.507 284.835,395.154 285.344,404.111 285.852,401.865 286.361,404.33 286.869,395.146 287.377,404.88 287.886,399.824 288.394,402.563 288.902,403.493 289.411,404.784 289.919,397.566 290.428,404.359 290.936,396.685 291.444,400.778 291.953,404.58 292.461,403.337 292.969,401.407 293.478,403.852 293.986,407.757 294.495,395.943 295.003,404.893 295.511,404.184 296.02,405.241 296.528,405.059 297.036,400.072 297.545,397.825 298.053,399.533 298.561,395.391 299.07,402.252 299.578,398.129 300.087,401.761 300.595,395.926 301.103,400.411 301.612,402.519 302.12,406.33 302.628,404.285 303.137,397.859 303.645,406.02 304.154,391.571 304.662,404.996 305.17,403.307 305.679,399.363 306.187,388.583 306.695,401.24 307.204,404.617 307.712,396.979 308.221,402.638 308.729,404.838 309.237,400.364 309.746,401.694 310.254,405.023 310.762,403.987 311.271,403.913 311.779,404.163 312.288,405.829 312.796,404.438 313.304,393.859 313.813,399.675 314.321,407.111 314.829,402.74 315.338,403.034 315.846,402.465 316.354,399.138 316.863,402.992 317.371,399.44 317.88,397.707 318.388,397.709 318.896,396.254 319.405,401.532 319.913,403.214 320.421,407.272 320.93,395.197 321.438,390.943 321.947,397.436 322.455,398.25 322.963,406.771 323.472,401.595 323.98,396.556 324.488,407.08 324.997,406.943 325.505,406.131 326.014,396.868 326.522,398.592 327.03,392.079 327.539,393.84 328.047,406.137 328.555,403.313 329.064,399.062 329.572,405.267 330.081,400.553 330.589,405.065 331.097,399.463 331.606,400.982 332.114,400.779 332.622,404.981 333.131,403.544 333.639,403.237 334.147,406.79 334.656,401.89 335.164,386.345 335.673,400.366 336.181,402.703 336.689,398.99 337.198,398.268 337.706,405.33 338.214,390.136 338.723,407.078 339.231,398.2 339.74,403.81 340.248,402.116 340.756,407.034 341.265,397.899 341.773,396.544 342.281,406.266 342.79,402.59 343.298,405.302 343.807,406.092 344.315,398.556 344.823,401.54 345.332,393.731 345.84,404.745 346.348,403.706 346.857,400.518 347.365,406 347.873,397.312 348.382,395.993 348.89,401.768 349.399,389.372 349.907,399.275 350.415,395.91 350.924,402.562 351.432,394.243 351.94,404.172 352.449,399.152 352.957,404.476 353.466,404.826 353.974,404.806 354.482,395.721 354.991,401.473 355.499,398.629 356.007,402.214 356.516,398.383 357.024,402.165 357.533,402.165 358.041,398.383 358.549,402.214 359.058,398.629 359.566,401.473 360.074,395.721 360.583,404.806 361.091,404.826 361.599,404.476 362.108,399.152 362.616,404.172 363.125,394.243 363.633,402.562 364.141,395.91 364.65,399.275 365.158,389.372 365.666,401.768 366.175,395.993 366.683,397.312 367.192,406 367.7,400.518 368.208,403.706 368.717,404.745 369.225,393.731 369.733,401.54 370.242,398.556 370.75,406.092 371.259,405.302 371.767,402.59 372.275,406.266 372.784,396.544 373.292,397.899 373.8,407.034 374.309,402.116 374.817,403.81 375.326,398.2 375.834,407.078 376.342,390.136 376.851,405.33 377.359,398.268 377.867,398.99 378.376,402.703 378.884,400.366 379.392,386.345 379.901,401.89 380.409,406.79 380.918,403.237 381.426,403.544 381.934,404.981 382.443,400.779 382.951,400.982 383.459,399.463 383.968,405.065 384.476,400.553 384.985,405.267 385.493,399.062 386.001,403.313 386.51,406.137 387.018,393.84 387.526,392.079 388.035,398.592 388.543,396.868 389.052,406.131 389.56,406.943 390.068,407.08 390.577,396.556 391.085,401.595 391.593,406.771 392.102,398.25 392.61,397.436 393.118,390.943 393.627,395.197 394.135,407.272 394.644,403.214 395.152,401.532 395.66,396.254 396.169,397.709 396.677,397.707 397.185,399.44 397.694,402.992 398.202,399.138 398.711,402.465 399.219,403.034 399.727,402.74 400.236,407.111 400.744,399.675 401.252,393.859 401.761,404.438 402.269,405.829 402.778,404.163 403.286,403.913 403.794,403.987 404.303,405.023 404.811,401.694 405.319,400.364 405.828,404.838 406.336,402.638 406.845,396.979 407.353,404.617 407.861,401.24 408.37,388.583 408.878,399.363 409.386,403.307 409.895,404.996 410.403,391.571 410.911,406.02 411.42,397.859 411.928,404.285 412.437,406.33 412.945,402.519 413.453,400.411 413.962,395.926 414.47,401.761 414.978,398.129 415.487,402.252 415.995,395.391 416.504,399.533 417.012,397.825 417.52,400.072 418.029,405.059 418.537,405.241 419.045,404.184 419.554,404.893 420.062,395.943 420.571,407.757 421.079,403.852 421.587,401.407 422.096,403.337 422.604,404.58 423.112,400.778 423.621,396.685 424.129,404.359 424.638,397.566 425.146,404.784 425.654,403.493 426.163,402.563 426.671,399.824 427.179,404.88 427.688,395.146 428.196,404.33 428.704,401.865 429.213,404.111 429.721,395.154 430.23,404.507 430.738,402.531 431.246,401.304 431.755,394.799 432.263,396.543 432.771,398.22 433.28,402.117 433.788,398.652 434.297,402.602 434.805,404.105 435.313,403.911 435.822,400.737 436.33,400.876 436.838,392.796 437.347,396.49 437.855,404.55 438.364,398.013 438.872,403.593 439.38,402.395 439.889,406.453 440.397,384.855 440.905,204.772 441.414,369.199 441.922,390.745 442.431,387.605 442.939,395.135 443.447,398.454 443.956,395.899 444.464,388.78 444.972,405.987 445.481,396.735 445.989,390.927 446.497,405.005 447.006,402.125 447.514,402.629 448.023,397.607 448.531,393.57 449.039,403.171 449.548,405.788 450.056,403.507 450.564,405.679 451.073,406.764 451.581,403.582 452.09,401.632 452.598,402.534 453.106,400.724 453.615,403.764 454.123,405.774 454.631,399.903 455.14,407.559 455.648,399.495 456.157,405.464 456.665,398.255 457.173,402.505 457.682,401.405 458.19,396.9 458.698,403.707 459.207,401.743 459.715,397.128 460.224,399.945 460.732,401.262 461.24,406.723 461.749,403.247 462.257,399.566 462.765,404.925 463.274,404.11 463.782,399.704 464.29,388.745 464.799,399.176 465.307,404.689 465.816,405.293 466.324,405.391 466.832,402.649 467.341,402.944 467.849,395.314 468.357,401.027 468.866,399.912 469.374,403.835 469.883,399.224 470.391,407.106 470.899,402.694 471.408,406.196 471.916,406.157 472.424,402.422 472.933,402.992 473.441,400.415 473.95,399.029 474.458,391.611 474.966,403.518 475.475,398.428 475.983,406.077 476.491,397.208 477,397.316 477.508,403.273 478.017,402.714 478.525,392.298 479.033,401.703 479.542,397.015 480.05,387.158 480.558,399.894 481.067,392.568 481.575,407.352 482.083,401.286 482.592,403.223 483.1,403.12 483.609,402.218 484.117,382.397 484.625,402.181 485.134,396.239 485.642,403.371 486.15,394.729 486.659,397.682 487.167,397.15 487.676,404.529 488.184,402.232 488.692,397.35 489.201,402.537 489.709,395.945 490.217,402.243 490.726,397.224 491.234,394.543 491.743,405.183 492.251,403.423 492.759,400.417 493.268,396.952 493.776,407.579 494.284,406.212 494.793,404.208 495.301,401.185 495.81,398.663 496.318,391.478 496.826,399.276 497.335,400.022 497.843,401.466 498.351,400.487 498.86,397.499 499.368,400.547 499.876,402.43 500.385,391.465 500.893,407.212 501.402,400.963 501.91,402.071 502.418,404.512 502.927,401.606 503.435,397.674 503.943,394.078 504.452,396.263 504.96,403.174 505.469,398.953 505.977,400.648 506.485,402.546 506.994,405.781 507.502,405.374 508.01,401.517 508.519,403.912 509.027,398.859 509.535,402.975 510.044,406.635 510.552,403.376 511.061,407.83 511.569,393.884 512.077,398.678 512.586,406.572 513.094,401.156 513.602,407.524 514.111,398.107 514.619,395.101 515.128,400.705 515.636,403.353 516.144,400.561 516.653,391.075 517.161,403.755 517.669,399.091 518.178,399.684 518.686,406.215 519.195,395.29 519.703,397.351 520.211,403.016 520.72,395.562 521.228,405.813 521.736,401.164 522.245,403.867 522.753,404.285 523.262,398.825 523.77,397.132 524.278,405.394 524.787,406.837 525.295,396.871 525.803,382.748 526.312,402.918 526.82,394.704 527.328,405.307 527.837,404.45 528.345,396.171 528.854,402.768 529.362,395.506 529.87,403.131 530.379,402.117 530.887,404.423 531.396,403.103 531.904,398.764 532.412,393.463 532.921,400.816 533.429,405.355 533.937,395.209 534.446,406.568 534.954,396.826 535.462,394.088 535.971,405.329 536.479,401.648 536.988,397.335 537.496,403.606 538.004,406.404 538.513,403.636 539.021,403.854 539.529,403.414 540.038,402.701 540.546,401.2 541.055,401.524 541.563,402.569 542.071,397.445 542.58,402.42 543.088,407.191 543.596,405.878 544.105,406.936 544.613,407.263 545.122,402.94 545.63,392.955 546.138,389.599 546.647,398.951 547.155,399.961 547.663,396.479 548.172,406.762 548.68,401.75 549.188,402.329 549.697,402.586 550.205,392.38 550.714,398.881 551.222,400.627 551.73,394.959 552.239,395.065 552.747,402.902 553.255,403.749 553.764,401.048 554.272,405.473 554.781,405.826 555.289,406.677 555.797,398.908 556.306,405.91 556.814,400.026 557.322,404.119 557.831,404.162 558.339,395.283 558.847,400.199 559.356,398.187 559.864,405.083 560.373,398.333 560.881,406.324 561.389,402.283 561.898,402.795 562.406,401.729 562.914,401.365 563.423,400.356 563.931,397.658 564.44,399.027 564.948,397.893 565.456,397.895 565.965,399.776 566.473,405.784 566.981,393.127 567.49,403.828 567.998,405.089 568.507,404.789 569.015,396.262 569.523,402.258 570.032,405.749 570.54,404.199 571.048,406.794 571.557,401.085 572.065,398.24 572.574,397.914 573.082,401.852 573.59,395.639 574.099,395.647 574.607,402.71 575.115,400.709 575.624,394.6 576.132,404.03 576.641,403.682 577.149,401.951 577.657,398.817 578.166,402.835 578.674,404.411 579.182,406.114 579.691,403.785 580.199,398.432 580.708,405.126 581.216,401 581.724,397.931 582.233,396.482 582.741,383.061 583.249,407.395 583.758,404.211 584.266,404.396 584.774,407.937 585.283,395.348 585.791,387.534 586.3,393.725 586.808,397.384 587.316,405.468 587.825,394.744 588.333,399.542 588.841,403.04 589.35,391.177 589.858,404.746 590.367,399.067 590.875,389.245 591.383,398.195 591.892,399.408 592.4,403.053 592.908,393.045 593.417,394.893 593.925,399.552 594.433,397.475 594.942,405.546 595.45,399.601 595.959,396.338 596.467,405.109 596.975,405.741 597.484,392.246 597.992,404.33 598.5,399.247 599.009,402.509 599.517,395.736 600.026,397.757 600.534,403.372 601.042,394.157 601.551,397.055 602.059,405.991 602.567,406.314 603.076,397.076 603.584,407.125 604.093,403.666 604.601,404.319 605.109,396.044 605.618,403.861 606.126,397.853 606.634,397.314 607.143,407.332 607.651,405.135 608.16,404.93 608.668,405.672 609.176,401.837 609.685,405.06 610.193,397.909 610.701,401.163 611.21,406.657" stroke="#0071bc" stroke-linecap="butt" stroke-linejoin="round" stroke-width="0.5"/>
  </g>
 </g>
</svg>
